# xmcd CD database file
#
# Track frame offsets:
#	150
#	23017
#	45063
#	70041
#	90070
#	118714
#	134279
#	158812
#	173657
#	199251
#	219280
#
# Disc length: 3399 seconds
#
# Revision: 0
# Processed by: cddbd v1.5.2PL0 Copyright (c) Steve Scherf et al.
# Submitted via: CDex 1.70beta2
#
DISCID=7d0d450b
DTITLE=Alexandre Gismonti Trio - Baiao de domingo
DYEAR=1900
DGENRE=Jazz
TTITLE0=Baiao de domingo
TTITLE1=Saudade da bahia
TTITLE2=Arrasta-pe
TTITLE3=Asa branca
TTITLE4=Chora, antonio!
TTITLE5=o bem do mar
TTITLE6=Forrozinho
TTITLE7=Ainda me recordo
TTITLE8=Ritmico e lento
TTITLE9=Feira de mangaio
TTITLE10=Saudades
EXTD=
EXTT0=
EXTT1=
EXTT2=
EXTT3=
EXTT4=
EXTT5=
EXTT6=
EXTT7=
EXTT8=
EXTT9=
EXTT10=
PLAYORDER=
